<svg width="64" height="64" viewBox="0 0 64 64" fill="none" xmlns="http://www.w3.org/2000/svg">
  <!-- Fondo con esquinas redondeadas -->
  <rect width="64" height="64" rx="12" ry="12" fill="white" stroke="black" stroke-width="2"/>
  
  <!-- Cuerpo (cuello negro) -->
  <path d="M16 64 C16 58, 18 54, 22 52 L42 52 C46 54, 48 58, 48 64 Z" fill="black"/>
  
  <!-- Cabeza -->
  <ellipse cx="32" cy="28" rx="14" ry="16" fill="white" stroke="black" stroke-width="2"/>
  
  <!-- Calvicie/cabello -->
  <path d="M18 24 C18 18, 22 14, 32 14 C42 14, 46 18, 46 24" stroke="black" stroke-width="2" fill="none"/>
  <path d="M20 22 C20 22, 22 20, 24 20" stroke="black" stroke-width="1.5" fill="none"/>
  
  <!-- Oreja izquierda -->
  <ellipse cx="17" cy="28" rx="2" ry="4" fill="white" stroke="black" stroke-width="1.5"/>
  
  <!-- Oreja derecha -->
  <ellipse cx="47" cy="28" rx="2" ry="4" fill="white" stroke="black" stroke-width="1.5"/>
  
  <!-- Gafas -->
  <g>
    <!-- Lente izquierdo -->
    <circle cx="26" cy="26" r="6" fill="none" stroke="black" stroke-width="2"/>
    <circle cx="26" cy="26" r="4.5" fill="white" opacity="0.3"/>
    
    <!-- Lente derecho -->
    <circle cx="38" cy="26" r="6" fill="none" stroke="black" stroke-width="2"/>
    <circle cx="38" cy="26" r="4.5" fill="white" opacity="0.3"/>
    
    <!-- Puente de las gafas -->
    <path d="M32 26 L32 26" stroke="black" stroke-width="2"/>
    <line x1="32" y1="24" x2="32" y2="28" stroke="black" stroke-width="2"/>
    
    <!-- Patillas -->
    <path d="M20 26 L17 28" stroke="black" stroke-width="2"/>
    <path d="M44 26 L47 28" stroke="black" stroke-width="2"/>
  </g>
  
  <!-- Ojos -->
  <circle cx="26" cy="26" r="1.5" fill="black"/>
  <circle cx="38" cy="26" r="1.5" fill="black"/>
  
  <!-- Cejas -->
  <path d="M22 22 C24 21, 28 21, 30 22" stroke="black" stroke-width="1.5" fill="none"/>
  <path d="M34 22 C36 21, 40 21, 42 22" stroke="black" stroke-width="1.5" fill="none"/>
  
  <!-- Nariz -->
  <path d="M32 28 L31 32 C31.5 33, 32.5 33, 33 32 L32 28" stroke="black" stroke-width="1.5" fill="none"/>
  
  <!-- Boca -->
  <path d="M28 38 C30 39, 34 39, 36 38" stroke="black" stroke-width="1.5" fill="none"/>
  
  <!-- Barba/patillas -->
  <path d="M24 34 C24 36, 24 38, 25 40" stroke="black" stroke-width="1" fill="none"/>
  <path d="M26 34 C26 36, 26 38, 27 40" stroke="black" stroke-width="1" fill="none"/>
  <path d="M28 36 C28 38, 28 40, 29 42" stroke="black" stroke-width="1" fill="none"/>
  <path d="M30 36 C30 38, 30 40, 31 42" stroke="black" stroke-width="1" fill="none"/>
  <path d="M33 36 C33 38, 33 40, 34 42" stroke="black" stroke-width="1" fill="none"/>
  <path d="M35 36 C35 38, 35 40, 36 42" stroke="black" stroke-width="1" fill="none"/>
  <path d="M37 34 C37 36, 37 38, 38 40" stroke="black" stroke-width="1" fill="none"/>
  <path d="M39 34 C39 36, 39 38, 40 40" stroke="black" stroke-width="1" fill="none"/>
  
  <!-- Líneas de barba en el mentón -->
  <path d="M29 40 C30 42, 32 44, 32 46" stroke="black" stroke-width="1" fill="none"/>
  <path d="M31 40 C32 42, 32 44, 32 46" stroke="black" stroke-width="1" fill="none"/>
  <path d="M33 40 C32 42, 32 44, 32 46" stroke="black" stroke-width="1" fill="none"/>
  <path d="M35 40 C34 42, 32 44, 32 46" stroke="black" stroke-width="1" fill="none"/>
</svg>