<svg width="64" height="64" viewBox="0 0 64 64" fill="none" xmlns="http://www.w3.org/2000/svg">
  <!-- Fondo con esquinas redondeadas estilo app icon -->
  <rect width="64" height="64" rx="12" ry="12" fill="white" stroke="black" stroke-width="3"/>
  
  <!-- Cabeza principal -->
  <ellipse cx="32" cy="25" rx="12" ry="14" fill="white" stroke="black" stroke-width="2.5"/>
  
  <!-- Calvicie/línea de cabello -->
  <path d="M21 18 C24 15, 28 14, 32 14 C36 14, 40 15, 43 18" stroke="black" stroke-width="2.5" fill="none"/>
  
  <!-- Líneas de cabello/textura -->
  <path d="M23 16.5 L25 15.5" stroke="black" stroke-width="1.5" fill="none"/>
  <path d="M26 15.8 L28 15" stroke="black" stroke-width="1.5" fill="none"/>
  <path d="M36 15 L38 15.8" stroke="black" stroke-width="1.5" fill="none"/>
  <path d="M39 15.5 L41 16.5" stroke="black" stroke-width="1.5" fill="none"/>
  
  <!-- Oreja izquierda -->
  <ellipse cx="19.5" cy="25" rx="1.8" ry="3.5" fill="white" stroke="black" stroke-width="2"/>
  
  <!-- Oreja derecha -->
  <ellipse cx="44.5" cy="25" rx="1.8" ry="3.5" fill="white" stroke="black" stroke-width="2"/>
  
  <!-- Montura de gafas izquierda -->
  <circle cx="27" cy="23" r="5" fill="none" stroke="black" stroke-width="2.5"/>
  
  <!-- Montura de gafas derecha -->
  <circle cx="37" cy="23" r="5" fill="none" stroke="black" stroke-width="2.5"/>
  
  <!-- Puente de las gafas -->
  <path d="M32 23 L32 23" stroke="black" stroke-width="2.5" fill="none"/>
  
  <!-- Ojos -->
  <circle cx="27" cy="23" r="2" fill="black"/>
  <circle cx="37" cy="23" r="2" fill="black"/>
  
  <!-- Nariz -->
  <path d="M32 26 C32 28, 31.5 29, 31 29.5" stroke="black" stroke-width="1.5" fill="none"/>
  
  <!-- Barba/bigote -->
  <path d="M28 30 C30 31, 32 31, 34 31 C36 31, 38 30, 40 29" stroke="black" stroke-width="2" fill="none"/>
  
  <!-- Líneas de barba -->
  <path d="M26 32 C26 34, 26 36, 26 37" stroke="black" stroke-width="1.5" fill="none"/>
  <path d="M28 33 C28 35, 28 37, 28 38" stroke="black" stroke-width="1.5" fill="none"/>
  <path d="M30 33.5 C30 35.5, 30 37.5, 30 38.5" stroke="black" stroke-width="1.5" fill="none"/>
  <path d="M32 34 C32 36, 32 38, 32 39" stroke="black" stroke-width="1.5" fill="none"/>
  <path d="M34 33.5 C34 35.5, 34 37.5, 34 38.5" stroke="black" stroke-width="1.5" fill="none"/>
  <path d="M36 33 C36 35, 36 37, 36 38" stroke="black" stroke-width="1.5" fill="none"/>
  <path d="M38 32 C38 34, 38 36, 38 37" stroke="black" stroke-width="1.5" fill="none"/>
  
  <!-- Cuello/cuerpo -->
  <rect x="20" y="45" width="24" height="19" rx="2" ry="2" fill="black"/>
  
  <!-- Boca -->
  <path d="M30 34.5 C31 35, 32 35, 33 35 C34 35, 35 34.8, 36 34.5" stroke="black" stroke-width="1.5" fill="none"/>
</svg>