<svg width="100" height="100" viewBox="0 0 100 100" xmlns="http://www.w3.org/2000/svg">
  <!-- Rounded square background -->
  <rect x="5" y="5" width="90" height="90" rx="20" ry="20" fill="white" stroke="black" stroke-width="3"/>
  
  <!-- Head/face circle -->
  <circle cx="50" cy="40" r="22" fill="white" stroke="black" stroke-width="2"/>
  
  <!-- Eyes -->
  <circle cx="43" cy="35" r="2" fill="black"/>
  <circle cx="57" cy="35" r="2" fill="black"/>
  
  <!-- Glasses frame -->
  <circle cx="43" cy="35" r="6" fill="none" stroke="black" stroke-width="2"/>
  <circle cx="57" cy="35" r="6" fill="none" stroke="black" stroke-width="2"/>
  <!-- Bridge of glasses -->
  <line x1="49" y1="35" x2="51" y2="35" stroke="black" stroke-width="2"/>
  
  <!-- Beard area -->
  <path d="M 35 45 Q 50 55 65 45 Q 65 52 50 58 Q 35 52 35 45" fill="black"/>
  
  <!-- Hair on top -->
  <path d="M 30 25 Q 50 18 70 25 Q 65 22 50 22 Q 35 22 30 25" fill="black"/>
  
  <!-- Body/shoulders -->
  <path d="M 25 75 Q 50 95 75 75 L 75 95 L 25 95 Z" fill="black"/>
  
  <!-- Small beard details -->
  <circle cx="45" cy="50" r="1" fill="black"/>
  <circle cx="50" cy="52" r="1" fill="black"/>
  <circle cx="55" cy="50" r="1" fill="black"/>
</svg>