<svg xmlns="http://www.w3.org/2000/svg" viewBox="0 0 64 64" fill="none" stroke="#111" stroke-width="3" stroke-linecap="round" stroke-linejoin="round">
  <!-- Brain -->
  <path d="M14 30c-3 0-5-2.5-5-5.5S11 19 14 19c.5-3 3-5 6-5 1.5 0 2.8.5 3.8 1.3C25 13.5 27.2 12 30 12c3.3 0 6 2.7 6 6 .8-.3 1.6-.4 2.5-.4 3.9 0 7 3.1 7 7 0 1.3-.3 2.4-.9 3.5"/>
  <path d="M14 30c0 4 3.2 7 7.2 7H26m-1.5-10c1.9 0 3.5 1.6 3.5 3.5M27 23c1.7 0 3 1.3 3 3m5-2c1.9 0 3.5 1.6 3.5 3.5"/>
  <!-- Easel with picture -->
  <rect x="40" y="18" width="16" height="20" rx="2"/>
  <path d="M40 44l-3 8M56 44l3 8M40 28l6 5 6-4"/>
  <circle cx="53" cy="22" r="1.8" fill="#111"/>
</svg>