<svg xmlns="http://www.w3.org/2000/svg" viewBox="0 0 32 32" fill="none" stroke="#111" stroke-width="3" stroke-linecap="round" stroke-linejoin="round">
  <!-- Brain -->
  <path d="M7 15c-1.5 0-2.5-1.25-2.5-2.75S5.5 9.5 7 9.5c.25-1.5 1.5-2.5 3-2.5.75 0 1.4.25 1.9.65C12.5 6.75 13.6 6 15 6c1.65 0 3 1.35 3 3 .4-.15.8-.2 1.25-.2 1.95 0 3.5 1.55 3.5 3.5 0 .65-.15 1.2-.45 1.75"/>
  <path d="M7 15c0 2 1.6 3.5 3.6 3.5H13m-.75-5c.95 0 1.75.8 1.75 1.75M13.5 11.5c.85 0 1.5.65 1.5 1.5m2.5-1c.95 0 1.75.8 1.75 1.75"/>
  <!-- Easel with picture -->
  <rect x="20" y="9" width="8" height="10" rx="1"/>
  <path d="M20 22l-1.5 4M28 22l1.5 4M20 14l3 2.5 3-2"/>
  <circle cx="26.5" cy="11" r=".9" fill="#111"/>
</svg>