<svg xmlns="http://www.w3.org/2000/svg" viewBox="0 0 500 500">
  <path d="M195 135c-40 0-75 17-95 43-20 27-29 64-29 97 0 58 13 87 29 110 16 24 39 37 67 37 26 0 46-12 61-31s25-46 36-75c6-17 11-30 22-30h28c11 0 16 13 22 30 11 29 21 56 36 75s35 31 61 31c28 0 51-13 67-37 16-23 29-52 29-110 0-33-9-70-29-97-20-26-55-43-95-43-30 0-57 8-81 20-17 8-25 8-24 8 1 0-7 0-24-8-24-12-51-20-81-20zm0-20c34 0 63 9 90 22 9 4 17 8 24 8s15-4 24-8c27-13 56-22 90-22 46 0 86 20 110 51 23 31 33 72 33 109 0 62-14 95-33 123-20 29-49 44-83 44-34 0-58-16-76-39-17-22-28-52-39-82-5-13-9-23-13-26-4 3-8 13-13 26-11 30-22 60-39 82-18 23-42 39-76 39-34 0-63-15-83-44-19-28-33-61-33-123 0-37 10-78 33-109 24-31 64-51 110-51zm-24 72c6 0 11 5 11 11v30h30c6 0 11 5 11 11v16c0 6-5 11-11 11h-30v30c0 6-5 11-11 11h-16c-6 0-11-5-11-11v-30h-30c-6 0-11-5-11-11v-16c0-6 5-11 11-11h30v-30c0-6 5-11 11-11h16zm137 19c-12 0-22 10-22 22s10 22 22 22 22-10 22-22-10-22-22-22zm44 0c-12 0-22 10-22 22s10 22 22 22 22-10 22-22-10-22-22-22z" fill="currentColor"/>
</svg>